<?xml version="1.0" encoding="utf-8"?>
<!-- Generator: Adobe Illustrator 20.1.0, SVG Export Plug-In . SVG Version: 6.00 Build 0)  -->
<svg version="1.1" id="Capa_1" xmlns="http://www.w3.org/2000/svg" xmlns:xlink="http://www.w3.org/1999/xlink" x="0px" y="0px"
	 viewBox="0 0 114.1 118.2" style="enable-background:new 0 0 114.1 118.2;" xml:space="preserve">
<style type="text/css">
	.st0{fill:#FFFFFF;}
</style>
<g>
	<path class="st0" d="M80,5L38.3,52.1c-0.2,0.3,0.1,0.7,0.4,0.4l21.8-17.4c0.1-0.1,0.2-0.1,0.3-0.1l30.6-0.3c0.2,0,0.2,0.2,0.1,0.3
		L65.6,60.8c0,0-0.1,0-0.1,0l-33.5,0c-0.1,0-0.1,0-0.2-0.1l-9.2-28.7c0-0.1,0-0.1,0-0.2L48.4,4.8c0,0,0.1-0.1,0.1-0.1l31.4,0
		C80.1,4.7,80.1,4.9,80,5z"/>
	<g>
		<path class="st0" d="M70.8,59.1h-0.6v-0.3h1.5v0.3h-0.6v1.7h-0.3V59.1z M72.2,58.8h0.3l0.7,1.1l0.7-1.1h0.3v2h-0.3v-1.5l-0.7,1.1
			h0l-0.7-1.1v1.5h-0.3V58.8z"/>
	</g>
	<g>
		<path class="st0" d="M5.3,85.6L5.3,85.6c0-5.4,4-9.9,9.6-9.9c3.5,0,5.5,1.2,7.4,3l-1.5,1.6c-1.6-1.5-3.4-2.6-6-2.6
			c-4.2,0-7.4,3.4-7.4,7.8v0.1c0,4.4,3.2,7.9,7.4,7.9c2.6,0,4.3-1,6.2-2.8l1.4,1.4c-2,2-4.2,3.3-7.6,3.3C9.4,95.4,5.3,91.1,5.3,85.6
			z"/>
		<path class="st0" d="M34.4,76h13.8v2H36.6v6.5H47v2H36.6v6.7h11.8v2H34.4V76z"/>
		<path class="st0" d="M60.8,76h13.8v2H63v6.5h10.4v2H63v6.7h11.8v2H60.8V76z"/>
		<path class="st0" d="M87.3,76h2.2v11.4L100.4,76h2.8L95,84.3l8.5,10.7h-2.7l-7.3-9.2l-4.1,4.1v5.1h-2.2V76z"/>
		<path class="st0" d="M104.7,78.1L104.7,78.1c0-1.1,0.9-2.1,2.1-2.1c1.2,0,2.1,0.9,2.1,2.1v0c0,1.1-0.9,2.1-2.1,2.1
			C105.6,80.2,104.7,79.2,104.7,78.1z M108.7,78.1L108.7,78.1c0-1.1-0.8-1.9-1.9-1.9c-1.1,0-1.9,0.9-1.9,1.9v0c0,1,0.8,1.9,1.9,1.9
			C107.9,80,108.7,79.1,108.7,78.1z M106,77h1c0.3,0,0.5,0.1,0.6,0.2c0.1,0.1,0.2,0.2,0.2,0.4v0c0,0.3-0.2,0.6-0.6,0.6l0.7,0.9h-0.4
			l-0.6-0.8h0h-0.5v0.8H106V77z M106.9,78c0.3,0,0.5-0.1,0.5-0.4v0c0-0.2-0.2-0.4-0.5-0.4h-0.6V78H106.9z"/>
	</g>
	<g>
		<path class="st0" d="M20,103h0.8l3.5,7.7h-0.9l-0.9-2h-4.2l-0.9,2h-0.9L20,103z M22.1,107.9l-1.7-3.9l-1.7,3.9H22.1z"/>
		<path class="st0" d="M28.4,103.1h0.8l4.8,6.1v-6.1h0.8v7.6h-0.7l-4.9-6.3v6.3h-0.8V103.1z"/>
		<path class="st0" d="M39,110.1c0.8,0,1.3-0.3,1.8-0.8l0.5,0.5c-0.6,0.6-1.3,1.1-2.3,1.1c-1.5,0-2.8-1.2-2.8-2.9
			c0-1.6,1.1-2.9,2.7-2.9c1.7,0,2.6,1.3,2.6,3c0,0.1,0,0.2,0,0.3H37C37.2,109.4,38,110.1,39,110.1z M40.7,107.6
			c-0.1-1-0.7-1.9-1.8-1.9c-1,0-1.7,0.8-1.8,1.9H40.7z"/>
		<path class="st0" d="M42.2,105.1h0.9l1.5,4.5l1.5-4.5h0.7l1.5,4.5l1.5-4.5h0.9l-2,5.7h-0.7l-1.5-4.4l-1.5,4.4h-0.7L42.2,105.1z"/>
		<path class="st0" d="M54.8,103.1h3.3c0.9,0,1.7,0.3,2.2,0.8c0.4,0.4,0.6,0.9,0.6,1.5v0c0,1.3-0.9,2-2.1,2.2l2.3,3.1H60l-2.2-3h0
			h-2.2v3h-0.9V103.1z M58,107c1.1,0,2-0.6,2-1.6v0c0-0.9-0.7-1.5-2-1.5h-2.4v3.1H58z"/>
		<path class="st0" d="M64.7,110.1c0.8,0,1.3-0.3,1.8-0.8l0.5,0.5c-0.6,0.6-1.3,1.1-2.3,1.1c-1.5,0-2.8-1.2-2.8-2.9
			c0-1.6,1.1-2.9,2.7-2.9c1.7,0,2.6,1.3,2.6,3c0,0.1,0,0.2,0,0.3h-4.5C62.8,109.4,63.7,110.1,64.7,110.1z M66.3,107.6
			c-0.1-1-0.7-1.9-1.8-1.9c-1,0-1.7,0.8-1.8,1.9H66.3z"/>
		<path class="st0" d="M67.9,109.1L67.9,109.1c0-1.2,1-1.9,2.4-1.9c0.7,0,1.2,0.1,1.7,0.2v-0.2c0-1-0.6-1.5-1.7-1.5
			c-0.7,0-1.2,0.2-1.7,0.4l-0.3-0.7c0.6-0.3,1.2-0.5,2-0.5c0.8,0,1.4,0.2,1.8,0.6c0.4,0.4,0.6,0.9,0.6,1.7v3.4H72v-0.8
			c-0.4,0.5-1,1-2,1C68.9,110.8,67.9,110.2,67.9,109.1z M72,108.6v-0.5c-0.4-0.1-1-0.2-1.6-0.2c-1,0-1.6,0.5-1.6,1.1v0
			c0,0.7,0.7,1.1,1.4,1.1C71.2,110.2,72,109.5,72,108.6z"/>
		<path class="st0" d="M74.4,102.8h0.8v8h-0.8V102.8z"/>
		<path class="st0" d="M76.9,102.9h1v0.9h-1V102.9z M76.9,105.1h0.8v5.6h-0.8V105.1z"/>
		<path class="st0" d="M79.7,109.2v-3.4h-0.8v-0.7h0.8v-1.7h0.8v1.7h1.8v0.7h-1.8v3.3c0,0.7,0.4,0.9,0.9,0.9c0.3,0,0.5-0.1,0.8-0.2
			v0.7c-0.3,0.2-0.6,0.2-1,0.2C80.4,110.8,79.7,110.4,79.7,109.2z"/>
		<path class="st0" d="M83.1,112.2l0.3-0.7c0.3,0.1,0.5,0.2,0.9,0.2c0.5,0,0.8-0.3,1.2-1.1l-2.6-5.6h0.9l2,4.7l1.8-4.7h0.9l-2.4,5.8
			c-0.5,1.2-1,1.6-1.9,1.6C83.9,112.5,83.5,112.4,83.1,112.2z"/>
		<path class="st0" d="M89.4,102.9h-0.6v-0.3h1.5v0.3h-0.6v1.7h-0.3V102.9z M90.8,102.6h0.3l0.7,1.1l0.7-1.1h0.3v2h-0.3v-1.5
			l-0.7,1.1h0l-0.7-1.1v1.5h-0.3V102.6z"/>
	</g>
</g>
</svg>
