<svg id="Capa_1" data-name="Capa 1" xmlns="http://www.w3.org/2000/svg" viewBox="0 0 158 140.33"><defs><style>.cls-1{fill:#fff;}</style></defs><title>Mesa de trabajo 1</title><path class="cls-1" d="M113.29,2.12,50.65,72.77a.45.45,0,0,0,.63.65L83.93,47.36a1.06,1.06,0,0,1,.51-.2l45.9-.52a.26.26,0,0,1,.19.45L91.7,85.84a.26.26,0,0,1-.18.07l-50.17,0a.26.26,0,0,1-.25-.18l-13.82-43a.26.26,0,0,1,.06-.27L65.78,1.72A.26.26,0,0,1,66,1.64l47.13,0A.26.26,0,0,1,113.29,2.12Z"/><path class="cls-1" d="M99.49,83.17h-.94v-.4h2.31v.4h-.94v2.53h-.42Zm2-.4h.45l1,1.61,1-1.61h.44v2.93h-.41V83.46L103,85H103l-1-1.59v2.25h-.42Z"/><path class="cls-1" d="M1.24,123v-.08c0-8.09,6-14.78,14.46-14.78a14.88,14.88,0,0,1,11.15,4.53L24.64,115a12.42,12.42,0,0,0-9-3.92c-6.33,0-11.07,5.15-11.07,11.72v.08c0,6.62,4.78,11.8,11.07,11.8,3.92,0,6.49-1.51,9.23-4.12L27,132.63c-3,3-6.25,5-11.43,5C7.33,137.65,1.24,131.16,1.24,123Z"/><path class="cls-1" d="M44.9,108.58H65.56v2.94H48.13v9.76h15.6v2.94H48.13v10H65.77v2.94H44.9Z"/><path class="cls-1" d="M84.51,108.58h20.66v2.94H87.74v9.76h15.6v2.94H87.74v10h17.64v2.94H84.51Z"/><path class="cls-1" d="M124.13,108.58h3.23v17.07l16.42-17.07h4.17l-12.25,12.5,12.78,16.09h-4l-11-13.84-6.08,6.17v7.68h-3.23Z"/><path class="cls-1" d="M150.31,111.74v0a3.12,3.12,0,0,1,6.24,0v0a3.12,3.12,0,0,1-6.24,0Zm6,0v0a2.84,2.84,0,1,0-5.67,0v0a2.84,2.84,0,1,0,5.67,0ZM152.21,110h1.43a1.33,1.33,0,0,1,.95.34.84.84,0,0,1,.26.62v0a1,1,0,0,1-.83.94l1,1.28h-.59L153.5,112h-.82v1.21h-.47Zm1.39,1.57c.45,0,.76-.21.76-.57v0c0-.34-.28-.55-.73-.55h-.94v1.14Z"/></svg>